<svg xmlns="http://www.w3.org/2000/svg" width="320" height="660" viewBox="0 0 320 660" font-family="'Segoe UI',Roboto,Helvetica,Arial,sans-serif">
  <rect x="0" y="0" width="320" height="660" rx="26" fill="#0F1115"/>
  <!-- status bar -->
  <text x="24" y="34" fill="#7E8899" font-size="12" font-weight="600">9:41</text>
  <circle cx="286" cy="30" r="3" fill="#7E8899"/><circle cx="296" cy="30" r="3" fill="#7E8899"/><circle cx="306" cy="30" r="3" fill="#7E8899"/>
  <!-- heading -->
  <text x="24" y="82" fill="#E6EAF0" font-size="27" font-weight="800">Matches</text>
  <!-- game toggle -->
  <rect x="24" y="98" width="272" height="42" rx="12" fill="#1C2029"/>
  <rect x="28" y="102" width="132" height="34" rx="9" fill="#1FCB6B"/>
  <text x="94" y="124" fill="#04160B" font-size="14" font-weight="700" text-anchor="middle">BGMI</text>
  <text x="228" y="124" fill="#A3ACBD" font-size="14" font-weight="700" text-anchor="middle">Valorant</text>
  <!-- card 1 : LIVE -->
  <rect x="24" y="158" width="272" height="112" rx="14" fill="#1C2029" stroke="#2C3340"/>
  <rect x="40" y="174" width="50" height="22" rx="6" fill="#1FCB6B"/>
  <text x="65" y="189" fill="#04160B" font-size="11" font-weight="800" text-anchor="middle">BGMI</text>
  <rect x="216" y="174" width="64" height="22" rx="11" fill="#3a1c1e"/>
  <circle cx="231" cy="185" r="4" fill="#FF4D4D"/>
  <text x="262" y="189" fill="#FF4D4D" font-size="10" font-weight="800" text-anchor="middle">LIVE</text>
  <text x="40" y="228" fill="#E6EAF0" font-size="16" font-weight="700">Grand Finals — Day 3</text>
  <text x="40" y="252" fill="#A3ACBD" font-size="12">Erangel   ·   8:30 PM</text>
  <!-- card 2 : UPCOMING -->
  <rect x="24" y="286" width="272" height="112" rx="14" fill="#1C2029" stroke="#2C3340"/>
  <rect x="40" y="302" width="50" height="22" rx="6" fill="#1FCB6B"/>
  <text x="65" y="317" fill="#04160B" font-size="11" font-weight="800" text-anchor="middle">BGMI</text>
  <rect x="196" y="302" width="84" height="22" rx="11" fill="#241f3a"/>
  <text x="238" y="317" fill="#8B5CF6" font-size="10" font-weight="800" text-anchor="middle">UPCOMING</text>
  <text x="40" y="356" fill="#E6EAF0" font-size="16" font-weight="700">Weekly Cup — Semis</text>
  <text x="40" y="380" fill="#A3ACBD" font-size="12">Miramar   ·   Tomorrow, 6:00 PM</text>
  <!-- card 3 : UPCOMING -->
  <rect x="24" y="414" width="272" height="112" rx="14" fill="#1C2029" stroke="#2C3340"/>
  <rect x="40" y="430" width="50" height="22" rx="6" fill="#1FCB6B"/>
  <text x="65" y="445" fill="#04160B" font-size="11" font-weight="800" text-anchor="middle">BGMI</text>
  <rect x="196" y="430" width="84" height="22" rx="11" fill="#241f3a"/>
  <text x="238" y="445" fill="#8B5CF6" font-size="10" font-weight="800" text-anchor="middle">UPCOMING</text>
  <text x="40" y="484" fill="#E6EAF0" font-size="16" font-weight="700">Open Qualifier #4</text>
  <text x="40" y="508" fill="#A3ACBD" font-size="12">Sanhok   ·   Sat, 4:00 PM</text>
  <!-- tab bar -->
  <line x1="0" y1="596" x2="320" y2="596" stroke="#1C2029" stroke-width="1"/>
  <circle cx="40" cy="618" r="4" fill="#1FCB6B"/>
  <text x="40" y="640" fill="#1FCB6B" font-size="10" font-weight="700" text-anchor="middle">Matches</text>
  <circle cx="120" cy="618" r="4" fill="#7E8899"/>
  <text x="120" y="640" fill="#7E8899" font-size="10" text-anchor="middle">Contests</text>
  <circle cx="200" cy="618" r="4" fill="#7E8899"/>
  <text x="200" y="640" fill="#7E8899" font-size="10" text-anchor="middle">Wallet</text>
  <circle cx="280" cy="618" r="4" fill="#7E8899"/>
  <text x="280" y="640" fill="#7E8899" font-size="10" text-anchor="middle">Profile</text>
</svg>
